<?xml version="1.0" encoding="UTF-8" standalone="no"?>
<!DOCTYPE svg PUBLIC "-//W3C//DTD SVG 1.1//EN" "http://www.w3.org/Graphics/SVG/1.1/DTD/svg11.dtd">
<svg xmlns="http://www.w3.org/2000/svg" xmlns:xlink="http://www.w3.org/1999/xlink" version="1.1" width="612pt" height="792pt" viewBox="0 0 612 792">
<g enable-background="new">
<g id="Layer-1" data-name="Layer 1">
<path transform="matrix(1,0,0,-1,0,792)" d="M 13.5822 723.6102 L 599.1823 723.6102 L 599.1823 453.6099 L 13.5822 453.6099 Z " fill="#ffffff" fill-rule="evenodd"/>
<path transform="matrix(1,0,0,-1,0,792)" d="M 302.4011 607.9388 C 299.0293 608.4918 292.7486 605.2785 289.9987 601.7604 C 289.1151 600.6294 288.6378 599.9029 288.1726 598.3191 C 286.7284 593.4087 287.9053 588.8548 291.9994 585.777 C 292.4229 585.4584 292.5377 585.3988 292.9337 585.1174 C 293.5636 584.6678 293.3541 584.7259 293.9499 584.335 C 294.7187 583.833 295.2624 583.6127 296.2675 583.2286 C 297.7642 582.6569 300.0889 581.8686 301.3115 581.1194 L 300.9186 569.1767 C 298.2878 568.707 296.6737 573.1605 294.8233 575.3999 C 293.2963 577.2455 290.7292 576.5947 288.8254 575.5212 C 287.7772 574.9311 288.5406 575.7491 287.4467 573.7232 C 286.6946 572.3297 287.0019 570.7769 287.5782 569.5092 C 288.5683 567.3322 288.3994 566.195 291.5819 563.7552 C 293.0831 562.6035 294.1611 562.1757 295.5214 561.3829 C 297.8694 560.0149 300.3403 560.3978 300.7791 559.4519 L 301.1406 558.1843 C 301.4254 556.4571 302.2449 554.5409 303.3536 553.3804 C 304.6935 551.9809 307.7291 550.1619 309.2808 549.8688 C 312.6671 549.2296 316.6004 549.6463 319.1066 551.81 C 319.9791 552.5634 321.8726 553.7772 322.0257 555.7105 C 321.2011 556.1694 321.5268 555.6949 320.0525 556.6093 C 318.8123 557.3781 319.5635 556.6689 317.7867 557.193 C 313.0673 558.5831 317.0676 557.8245 312.692 557.6125 C 312.2186 557.5904 311.3654 557.6301 310.9079 557.7358 C 309.7729 557.9986 309.9614 557.8889 309.7862 558.752 C 310.9003 559.7589 314.8002 559.6396 316.5375 560.2467 L 322.0673 562.8302 C 325.9882 565.3301 327.7023 568.6251 327.8282 573.5137 C 327.9107 576.6982 327.9379 577.9621 326.5123 580.4759 C 326.2122 581.0026 326.2048 580.7996 325.6753 581.4595 L 324.6905 582.6141 C 322.9685 584.1703 320.277 585.6758 318.276 586.4607 C 317.626 586.7147 317.1909 586.6637 316.5831 586.9219 C 315.9241 587.2054 316.3445 587.3125 315.2055 587.5767 C 314.5601 587.7281 313.9622 587.6799 313.3261 587.8769 L 310.214 588.9532 L 311.0471 599.1562 C 311.1973 599.523 311.2021 599.474 311.3742 599.7101 C 312.4809 599.4658 313.5129 598.6497 314.2718 597.7763 L 314.6272 597.3403 C 315.5774 596.1467 316.2713 595.1976 317.3496 594.2645 C 319.7923 592.1473 323.4098 592.4959 325.2175 594.978 C 327.6071 598.2593 323.6417 603.2886 319.523 605.4151 C 318.7097 605.8349 316.3499 607.0292 315.4269 606.9246 C 313.0571 606.674 312.0018 607.0861 310.8526 608.3135 C 310.6276 609.5126 310.678 616.8662 310.9983 617.6208 C 311.741 618.7136 315.1721 618.33 317.1728 618.33 C 321.1447 618.3309 334.0449 617.7543 335.6283 618.8564 C 335.6283 620.3438 335.9075 620.1159 335.0931 621.2599 L 331.9364 625.5839 L 287.977 625.585 L 287.9634 618.6847 L 303.7507 618.6163 C 304.0824 616.155 304.1609 615.0504 304.1427 612.5309 C 304.13 610.5804 304.8097 607.5139 302.4011 607.9388 Z M 314.8625 569.9503 C 315.5051 569.9597 316.2178 570.507 316.8238 570.9368 C 317.0829 571.121 317.5053 571.4422 317.7332 571.6233 C 318.4396 572.1857 318.0396 571.3291 318.4169 572.506 C 318.8755 573.8839 319.3277 574.6487 318.9101 576.4303 C 318.1683 579.5969 312.7195 582.0602 311.7611 580.9791 C 311.3045 580.4654 310.9978 571.284 311.5687 569.8664 C 311.7557 569.7921 311.4743 569.7465 312.334 569.6719 Z M 303.1282 587.7573 C 303.4029 588.2751 303.656 588.5345 303.656 589.339 C 303.656 592.325 303.9746 599.2271 303.3916 601.7289 C 301.2058 601.7289 300.7633 601.9784 299.0985 600.7499 C 297.5352 599.5947 296.9473 598.739 296.4393 597.0827 C 295.5203 594.0899 295.8188 594.8442 296.3803 593.1417 C 296.7727 591.9497 296.2757 592.13 297.1539 591.0092 L 297.5117 590.5757 C 298.1001 589.8229 298.1064 589.6695 298.9548 589.1193 L 299.2842 588.922 C 300.439 588.2049 301.4014 587.7955 303.1282 587.7573 " fill="#053751" fill-rule="evenodd"/>
<path transform="matrix(1,0,0,-1,0,792)" d="M 248.6316 561.9161 C 249.2657 563.7197 248.5054 563.277 248.1449 564.5931 C 248.0403 564.9769 248.1205 565.0041 247.974 565.4767 C 247.6638 566.481 247.5553 566.0036 247.2358 566.8481 C 246.8959 567.7486 247.2106 567.9391 246.837 568.821 C 246.2692 570.1632 246.5203 568.2838 246.2477 570.3406 C 245.9982 572.2163 245.391 572.6245 245.2258 573.7997 C 244.9996 575.4016 245.2062 576.0686 244.626 577.6829 C 244.1347 579.0512 244.2149 584.2981 244.1571 586.1767 C 244.1197 587.3808 243.9244 587.3715 243.8974 588.2924 L 244.4187 596.7071 C 244.4253 599.402 244.8193 598.5442 245.1481 600.4593 C 245.2686 601.1637 245.1472 601.8259 245.2042 602.5124 C 245.3182 603.8997 246.0589 604.4618 246.2289 605.9687 C 246.4841 608.2228 246.2851 606.4282 246.837 607.7333 C 247.1947 608.5777 246.9203 608.6282 247.1734 609.5061 L 253.2889 622.3717 C 253.332 622.4372 253.4542 622.6257 253.4953 622.6931 L 255.8999 626.3518 C 255.9325 626.3969 255.9793 626.4584 256.0119 626.5032 L 258.4023 629.6494 C 258.7181 630.1117 259.0328 630.5751 259.4316 630.9927 L 260.3191 631.95 C 260.3546 631.9911 260.4042 632.052 260.4404 632.0931 L 261.199 632.9151 C 261.3813 633.1065 261.4232 633.1484 261.5868 633.3185 L 265.6698 637.4081 C 265.7098 637.4446 265.7679 637.4968 265.809 637.5322 C 265.8509 637.5679 265.9116 637.6164 265.9535 637.651 L 266.4068 637.9892 C 266.6319 638.1646 266.4833 638.0388 266.7019 638.2216 L 271.1426 641.6892 C 271.6013 642.0209 271.4323 641.931 271.7331 642.1533 L 278.7837 646.4381 C 278.8379 646.4653 278.905 646.4999 278.9583 646.528 C 279.504 646.8109 278.9286 646.5532 279.4581 646.8194 L 279.8178 646.9866 C 281.173 647.5592 278.763 646.554 280.2073 647.1238 C 280.5474 647.2585 280.4389 647.1612 280.9349 647.4506 L 287.2514 650.0979 C 288.3818 650.4792 287.6083 650.4596 288.9386 650.7836 C 290.2153 651.0946 291.0328 651.6607 292.4079 651.7962 C 293.6015 651.9138 293.1673 651.6859 294.1656 652.1474 C 294.2198 652.1726 294.2787 652.2185 294.332 652.2437 C 295.8724 652.9759 298.0423 652.805 299.5424 653.3609 C 301.8144 654.2033 305.4226 653.3507 308.1008 653.7699 C 310.1298 654.0866 310.3089 653.669 312.154 653.6458 C 313.6391 653.6279 315.1655 653.6514 316.6526 653.6636 C 318.4929 653.6795 320.0258 652.9547 322.2658 652.6854 C 324.9578 652.3614 324.0984 651.9402 325.876 651.814 C 327.452 651.7018 327.8733 651.1209 329.377 650.8341 L 330.5971 650.4715 C 330.81 650.3661 330.4001 650.4727 331.0968 650.1801 L 333.4275 649.3479 C 334.7688 648.5828 336.0813 648.455 337.5281 647.6488 C 339.9092 646.3205 342.3268 645.2127 344.5937 643.6423 C 344.6396 643.6106 344.7023 643.5649 344.7488 643.5332 L 345.2366 643.2304 C 347.8884 641.55 350.206 639.6443 352.5843 637.6603 C 352.6262 637.6258 352.6869 637.5773 352.7289 637.5416 L 355.7883 634.5377 C 356.1041 634.1947 355.9218 634.3628 356.2954 633.9892 L 368.6751 616.0524 C 368.6975 615.9917 368.7219 615.9197 368.7471 615.8611 C 368.7715 615.8041 368.8041 615.7366 368.8313 615.6808 C 368.8566 615.6275 368.8985 615.5649 368.9254 615.5116 C 368.9527 615.4603 368.9983 615.4004 369.0255 615.3491 L 369.6083 613.8218 C 369.9269 613.0267 370.1483 613.0678 370.3827 612.2245 C 370.5228 611.7199 370.3742 611.9331 370.5911 611.3781 C 370.9806 610.3794 370.9358 611.3035 371.2915 609.7062 C 371.6252 608.2115 372.1099 607.9209 372.2922 606.2247 C 372.4359 604.8862 373.0927 604.1211 373.2599 602.7106 C 373.8249 597.9345 374.1165 602.0135 374.1165 594.6043 C 373.0487 594.5156 372.9909 594.1857 372.3267 593.4946 C 371.7065 592.85 371.4588 592.4373 370.9891 591.6694 C 370.2762 590.5043 370.0446 587.7703 370.5435 586.2849 L 372.1294 583.6535 C 372.166 583.6136 372.2165 583.5538 372.2539 583.5144 C 373.7662 581.9451 375.6895 581.5071 377.9212 581.8181 C 379.366 582.0199 379.2438 581.7713 380.2031 582.4553 C 382.5765 584.1459 382.7132 584.9036 383.2594 587.0463 C 383.6557 588.598 383.5137 590.5511 382.7494 591.9009 C 382.7344 591.929 382.4972 592.257 382.4243 592.3661 C 382.246 592.6334 382.2965 592.5883 382.1162 592.8491 L 381.0988 593.9419 C 380.429 594.5193 379.552 595.1404 378.5984 595.3955 C 378.5984 599.5307 377.9184 600.2379 377.6071 601.7856 C 377.297 603.3325 377.8313 603.4623 377.1505 605.0197 C 376.7851 605.8556 376.9356 605.1101 376.6751 606.3891 C 376.6113 606.6984 376.5396 607.5193 376.42 607.9799 C 376.2332 608.6962 376.0557 608.6889 375.8519 609.2566 L 371.4103 620.3699 C 371.3805 620.4175 371.3318 620.4764 371.302 620.5249 L 371.1104 620.8603 C 371.0823 620.9144 371.0554 620.9872 371.029 621.0425 L 370.222 622.6081 C 370.1931 622.6603 370.1614 622.7303 370.1324 622.7827 L 366.084 629.0152 C 365.7626 629.4776 365.6543 629.6494 365.3291 630.106 L 362.0599 634.2182 C 360.343 636.1452 358.6073 638.2162 356.6401 639.8705 L 346.106 647.7908 C 346.0612 647.8234 345.9997 647.8702 345.9538 647.9028 L 345.3364 648.339 C 345.2672 648.3784 345.0572 648.4793 344.9843 648.5148 L 337.0844 652.4773 C 336.4268 652.7305 336.5521 652.7659 336.4053 652.8526 L 333.2143 654.1435 C 331.831 654.5061 330.9687 655.0152 329.5723 655.2468 C 328.1309 655.4852 329.3303 655.2618 328.231 655.7513 C 327.1204 656.2446 326.499 655.8466 325.209 656.42 C 324.4955 656.7378 325.0091 656.6854 323.8883 656.945 C 323.1139 657.1244 323.0036 657.0675 322.177 657.0785 C 319.7418 657.1103 321.2419 657.8932 315.5859 657.8688 L 308.4735 658.1378 C 305.7338 658.1398 304.0458 657.8529 301.3517 657.8782 C 299.2119 657.8989 299.6563 657.9493 298.1937 657.3458 C 296.9532 656.8347 296.2488 657.2803 294.8644 656.9844 C 293.5352 656.6995 293.5568 656.1763 292.1145 656.0436 C 290.2986 655.8763 290.5478 655.5617 289.1877 655.2797 C 286.7899 654.7816 287.9427 654.933 286.435 654.3408 C 285.798 654.0905 285.641 654.2391 284.9471 653.9848 L 273.7451 648.5783 C 273.3426 648.3606 273.7069 648.5865 273.2312 648.3008 L 270.6673 646.6465 C 270.5981 646.6073 270.4028 646.4923 270.3373 646.4494 C 270.3189 646.4373 269.9283 646.1382 269.8872 646.1084 C 269.5584 645.8647 269.6088 645.9086 269.2735 645.6677 L 268.1807 644.9156 C 267.8873 644.7277 268.0909 644.8884 267.6977 644.6072 C 267.4454 644.4261 267.34 644.3215 267.1157 644.1347 C 266.8073 643.8787 266.4227 643.5519 266.1032 643.3024 L 265.1017 642.458 C 265.0615 642.4214 265.0056 642.3673 264.9654 642.331 L 257.5233 635.2736 L 250.0345 625.3628 C 249.73 624.9022 249.9982 625.3815 249.6152 624.7276 L 248.2186 622.1699 C 248.1795 622.1007 248.0607 621.9085 248.0196 621.841 C 247.6936 621.2928 247.8852 621.6982 247.6321 621.174 L 242.8138 609.3848 C 242.5887 607.8688 242.9289 609.2408 242.286 608.0666 C 241.8163 607.2083 241.9254 605.8959 241.6283 605.0336 C 241.45 604.5143 241.2006 604.474 241.0464 603.7699 C 240.7428 602.3854 241.2632 601.8633 240.6747 600.4508 C 239.8229 598.4025 239.9423 596.0279 239.9397 593.8047 C 239.9369 591.3369 239.1165 589.6553 239.4689 587.0259 C 239.595 586.0862 239.9068 585.0091 239.9397 583.8049 C 239.9732 582.5877 239.8873 581.3127 239.9219 580.0966 C 239.9956 577.5222 240.9344 576.3424 240.9783 573.7708 C 241.0146 571.6449 241.4948 572.5276 241.7732 570.8758 C 242.3075 567.7186 242.3327 569.1909 242.8756 566.4407 C 243.11 565.2507 243.0819 566.0532 243.4603 565.1807 C 243.6435 564.7595 243.7265 564.099 243.847 563.7226 L 244.5197 562.286 C 244.5437 562.2242 244.5644 562.1522 244.586 562.0878 C 244.6084 562.0224 244.6214 561.9487 244.643 561.8815 C 244.8351 561.2621 244.6214 561.689 244.8913 561.0762 C 245.2388 560.287 244.9706 560.9687 245.181 560.5736 L 245.706 559.2538 C 246.0141 558.4944 245.7694 559.0902 246.0711 558.5652 L 251.9793 548.392 C 252.0111 548.3452 252.0522 548.2789 252.0839 548.2329 L 252.5462 547.6408 C 252.582 547.5997 252.6378 547.5455 252.6744 547.5044 L 259.3945 539.725 C 259.6037 539.5272 259.7233 539.4084 259.9313 539.2086 C 260.1006 539.0461 260.138 539.0133 260.337 538.8228 C 260.5331 538.634 260.6899 538.4846 260.8693 538.3006 L 264.3004 535.1406 C 264.3423 535.106 264.4013 535.0555 264.4432 535.0201 C 264.4852 534.9855 264.545 534.9351 264.587 534.9005 L 282.0467 524.416 C 282.6405 524.1665 282.835 524.2031 283.4093 523.9329 L 285.2963 523.184 C 286.9461 522.7543 284.3612 523.5259 285.7167 523.0774 C 286.4798 522.8243 286.4687 522.5964 287.4129 522.4011 C 288.2557 522.2265 288.1324 522.3889 288.9235 522.0649 C 289.6475 521.7678 289.1982 521.7528 290.1781 521.4745 C 290.9721 521.2494 291.0943 521.4129 291.8239 521.2755 C 293.2336 521.0101 292.3526 520.6348 294.7589 520.5189 C 296.3254 520.4432 296.443 520.0566 297.6772 519.7473 C 298.7073 519.4885 299.7714 519.4681 301.1014 519.4803 C 303.0137 519.497 302.7728 519.2476 304.2204 518.9085 C 306.0207 518.4873 312.6396 518.4051 314.9674 518.7767 C 316.3949 519.0055 316.6534 519.4128 317.9537 519.4811 C 319.5978 519.5679 321.4633 519.4596 322.9336 520.0379 C 323.3333 520.1946 323.9938 520.4143 324.3535 520.4628 C 326.9829 520.8177 325.1446 520.4208 327.3389 521.1692 C 328.7446 521.6474 328.7072 521.0439 330.2935 521.9042 C 331.1631 522.3759 332.386 522.4524 333.0771 522.8121 L 337.0425 524.3822 C 337.3404 524.5095 337.46 524.6113 337.5544 524.6617 C 338.1157 524.9568 337.4442 524.7028 338.2699 525.0008 L 345.541 528.8017 C 346.208 529.1705 346.1584 529.1697 346.6834 529.5042 L 349.8276 531.633 C 349.8735 531.6656 349.937 531.7104 349.9809 531.7432 L 350.5589 532.2206 C 350.6 532.2552 350.659 532.3065 350.7009 532.3411 L 351.4156 532.9446 C 351.4586 532.9791 351.5165 533.0313 351.5596 533.0639 C 351.6035 533.0976 351.6642 533.1472 351.7089 533.1798 C 352.5253 533.772 353.7958 534.2185 354.0807 535.2883 C 354.8962 535.0706 354.8018 534.8996 355.4538 534.5521 C 356.4037 534.0447 357.4117 533.5132 358.5878 533.4797 C 359.9254 533.4403 362.0197 534.4951 362.9585 535.3741 L 364.3943 537.3666 C 365.0545 538.905 365.8252 540.6752 365.1163 542.3686 C 364.5204 543.7922 363.8282 545.3504 362.4792 546.3227 C 361.3442 547.1419 361.4723 546.8749 360.0476 547.3196 C 358.5251 547.795 358.4531 547.6139 356.4439 547.1617 C 355.5462 546.9599 355.875 547.2028 355.0774 546.6824 C 354.1983 546.1098 353.2363 545.116 352.8317 544.1828 C 351.2072 540.4343 352.2702 540.591 351.866 539.0881 L 338.7957 530.0104 C 338.2398 529.6927 338.8034 529.9685 338.3232 529.6927 L 336.1802 528.6719 C 335.8692 528.5551 335.8534 528.5849 335.5702 528.4905 C 335.1107 528.3366 335.6076 528.5364 335.175 528.359 L 331.5078 526.7531 C 330.9398 526.5896 330.6643 526.6531 330.1815 526.4991 L 327.8302 525.6853 C 327.5912 525.6471 326.7916 525.4818 326.5506 525.3837 C 323.5632 524.1787 324.0862 525.1034 322.4937 524.4318 C 321.5305 524.0265 320.7402 524.0245 319.5884 523.9097 L 313.8681 523.04 C 308.8678 522.1199 305.2414 523.5931 301.8832 523.6892 C 300.6729 523.7249 300.3038 523.8666 298.9811 523.9508 C 297.2633 524.0602 297.8974 524.5654 294.7541 524.7326 C 293.0635 524.8225 293.7762 525.2417 292.432 525.5742 C 291.9192 525.7003 291.3738 525.6893 290.8179 525.8049 C 289.1775 526.144 290.8431 525.7304 289.7118 526.2814 C 288.8124 526.7194 289.5418 526.3974 288.4742 526.6253 L 280.4465 529.9339 C 280.0429 530.1476 280.355 530.0067 279.9187 530.1964 L 277.105 531.6004 C 276.5849 531.9085 277.1229 531.6151 276.6447 531.9317 L 269.3174 536.7314 C 269.0493 536.9125 269.0867 536.8762 268.8503 537.0545 L 260.6919 544.4498 C 260.079 545.1905 259.7848 545.6109 259.1328 546.3181 L 254.8582 551.7975 C 254.8247 551.8406 254.7714 551.8984 254.7388 551.9415 C 253.1843 553.9499 251.7766 556.698 250.6969 558.9726 L 249.7805 561.2202 C 249.1994 562.5221 249.3499 561.9056 248.6316 561.9161 " fill="#053751" fill-rule="evenodd"/>
<path transform="matrix(1,0,0,-1,0,792)" d="M 215.1473 590.6511 C 213.9534 589.5227 213.0857 588.6904 212.4244 587.1351 C 211.3016 584.4943 211.2279 583.2689 212.2852 580.3143 L 212.9763 578.7085 C 213.0083 578.6666 213.0605 578.6076 213.0922 578.5656 C 214.8418 576.2826 218.3261 574.2556 221.2339 575.1533 C 222.9024 575.6681 224.5958 576.6253 225.7169 577.9695 C 228.8611 581.7396 227.9971 587.9169 224.0972 590.6044 C 222.5052 591.7011 223.2703 591.0911 221.5993 591.8131 C 221.1089 596.3706 221.8141 600.5302 222.5203 605.1169 L 225.5598 616.3027 C 226.3249 618.0823 226.5463 619.6516 227.3692 621.377 L 230.6761 628.6348 C 231.0778 629.4019 231.4514 630.1857 231.9231 631.0664 L 237.6689 640.1123 C 237.8957 640.3748 237.8154 640.2197 238.0294 640.5066 L 243.6293 647.5833 C 247.4348 651.6692 250.1858 654.2464 254.4724 657.6111 L 256.4827 659.2589 C 259.5288 661.5848 264.1031 663.9985 265.3027 664.9177 L 267.3099 666.1301 C 267.7901 666.4056 267.878 666.5244 268.23 666.743 L 276.7893 670.7784 C 277.2527 670.9595 277.4843 670.953 278.0093 671.1772 L 284.5984 673.5266 C 285.7065 673.8729 286.3845 673.5124 287.5374 674.0889 C 288.0278 674.3336 287.3597 674.3092 288.69 674.5147 C 289.2495 674.6017 289.9108 674.5745 290.4908 674.6669 C 291.9611 674.9016 291.5025 675.3583 293.1701 675.5068 C 294.2572 675.6029 295.4594 675.5573 296.5467 675.7339 C 297.6508 675.9122 298.1001 676.2813 299.5004 676.3822 C 305.3497 676.8062 314.9059 676.9089 320.3107 676.1392 C 321.9052 675.913 325.1548 675.5601 326.4786 675.1463 C 327.5201 674.8211 328.1329 674.7157 329.3371 674.5717 C 332.0841 674.242 340.6209 671.1772 342.9048 670.172 C 344.7105 669.3772 345.9988 668.7794 347.8603 668.0188 L 353.6603 665.0793 C 354.0591 664.8401 353.6912 665.0634 354.1105 664.757 C 354.1544 664.7253 354.2122 664.674 354.2562 664.6422 C 354.3012 664.6093 354.3619 664.56 354.4067 664.5271 L 369.8382 653.0658 C 370.0315 652.8807 369.9334 652.9592 370.1914 652.6621 L 379.0253 642.7763 C 380.1526 641.382 380.8803 639.9386 382.1049 638.6749 L 382.517 638.3001 C 383.0474 637.7369 382.4991 638.062 383.3892 636.5693 L 384.4879 634.7384 C 386.3327 631.6549 388.3802 628.5294 389.6348 625.1292 L 391.7302 620.0898 C 392.8978 617.5536 393.5823 614.8811 394.1989 612.1562 L 395.8569 606.8775 C 396.0913 606.0163 396.0896 604.3844 396.2333 603.4941 C 396.6248 601.0673 396.9564 599.8408 397.0806 597.2423 C 397.2844 593.0107 398.3482 588.3766 397.5018 583.9152 C 397.1265 581.9357 397.0658 579.6445 396.9292 577.4624 C 396.8257 575.7931 396.0045 569.9906 395.403 568.3156 C 394.9163 566.962 395.1105 565.9438 394.4222 564.3156 L 393.6039 561.4013 C 393.2331 560.5203 393.4256 560.7706 393.2348 559.8394 L 384.0403 540.9142 L 379.6435 534.7837 C 377.5567 532.1597 375.3541 529.4237 373.0524 527.1304 C 371.3712 525.4566 365.1134 519.6379 363.3069 518.9448 C 363.2536 518.9085 363.1723 518.9131 363.151 518.832 L 362.0786 517.8155 C 361.1333 516.8225 360.3336 516.4087 359.2015 515.6875 L 357.1838 514.5052 C 357.1362 514.4751 357.0735 514.4304 357.0267 514.3995 C 352.6038 511.484 350.2284 510.4035 345.5719 508.21 L 335.1078 504.1811 C 333.4003 503.4163 329.3062 503.0836 327.0988 502.3494 L 325.2969 501.9795 C 324.5355 501.8712 324.0564 501.7955 323.3903 501.603 C 319.7463 500.5502 309.5215 500.4057 305.0461 500.5103 C 302.2336 500.5766 298.7138 500.7773 296.0572 501.1481 C 294.7113 501.336 293.7623 501.7796 292.1153 501.9225 C 289.5055 502.1495 289.7277 502.5691 288.1715 502.7848 C 287.2925 502.9061 286.791 502.797 286.0174 503.1006 C 285.2955 503.3846 285.556 503.4994 284.3875 503.7554 C 281.5336 504.3793 278.3064 505.6608 275.5553 506.8052 C 270.7858 508.7911 260.888 513.8904 256.9779 517.269 C 255.6972 518.3759 254.0866 519.0701 252.9442 520.3395 C 250.0055 523.6081 249.6934 522.5 251.6627 525.9461 C 252.9377 528.1767 252.4501 532.7997 251.0668 534.835 C 248.722 538.2884 244.328 539.032 240.9231 536.9443 C 239.3745 535.9944 238.0433 534.8789 237.5082 533.3564 C 236.2303 529.7207 236.7887 525.0382 240.2405 522.7254 C 244.4737 519.8902 246.4364 522.4431 248.3158 521.028 L 259.7856 512.1615 C 261.2979 511.0087 263.2439 510.2269 264.7619 509.2376 L 270.1675 506.2484 C 270.7784 505.9721 270.9604 506.029 271.5398 505.7337 C 274.557 504.1933 280.3008 501.7275 283.7038 501.2912 C 285.8791 501.0117 284.0803 500.7158 286.3219 500.4607 C 288.5117 500.2104 287.6567 500.0496 289.2169 499.6732 C 290.2958 499.4135 291.5065 499.4966 292.659 499.3546 C 294.1722 499.1698 293.6511 498.712 295.5387 498.5963 C 298.499 498.4149 299.7825 498.7026 302.271 497.9489 C 304.2298 497.3556 307.262 497.6994 309.5283 497.7031 C 311.8017 497.706 314.4192 497.6229 316.4068 498.0739 C 318.7281 498.6009 320.7206 498.3486 323.1981 498.7315 L 329.2549 500.0329 C 330.3935 500.4159 331.3817 500.2804 332.5334 500.5746 L 340.5331 503.2743 C 341.0824 503.4798 341.3058 503.6162 341.8308 503.8274 C 342.2483 503.9955 342.8067 504.1188 343.23 504.282 L 353.2045 509.0321 C 353.9509 509.3271 354.8971 509.9083 355.5845 510.3437 C 356.9681 511.2215 358.6317 512.28 359.8693 513.1468 L 369.472 520.1957 C 370.6257 521.0073 371.1206 522.1366 372.5359 522.6327 C 374.3762 525.2706 376.6833 527.1052 379.1353 530.0133 L 382.6001 534.4642 C 382.8504 534.7885 382.7401 534.653 382.9448 534.9107 L 392.1914 550.7226 C 392.8473 551.9648 393.5058 553.0147 393.7496 554.5363 C 394.0841 556.628 394.1904 555.3128 394.7669 557.1136 C 395.346 558.923 396.2727 560.5333 396.5902 562.3931 L 397.3467 565.0611 C 397.6673 566.1037 397.4851 567.2404 397.8672 568.266 C 398.408 569.7167 398.336 569.1461 398.4996 571.0963 C 398.6144 572.476 398.9684 572.8272 399.1955 574.0407 C 399.583 576.1154 399.3673 578.5262 399.6615 580.7254 C 400.1409 584.2993 400.9589 590.3691 400.0082 594.1185 C 399.526 596.0186 399.5186 598.449 399.399 600.6611 C 399.331 601.926 399.2057 602.4509 398.8638 603.5221 C 398.4659 604.7739 398.5753 605.3746 398.4182 606.7273 L 397.4253 610.8092 C 396.9414 612.246 397.2739 610.6317 396.8116 611.9376 C 396.3781 613.1614 396.9133 613.5565 396.2137 614.8502 L 395.602 616.7699 C 395.2003 618.4222 396.1111 615.5311 395.473 617.22 C 395.447 617.2892 395.4132 617.3535 395.3843 617.4181 C 394.9965 618.2683 395.0274 617.576 394.8191 618.6334 C 393.5628 625.0003 387.2716 635.9088 383.3773 641.308 C 382.9269 641.9319 382.233 642.6439 381.8415 643.182 C 381.3239 643.8937 380.9038 644.6035 380.3264 645.3853 L 375.4261 651.0274 C 374.7002 651.8543 374.2985 652.1567 373.5794 652.8574 C 368.6865 657.6222 363.5263 661.7117 357.7742 665.5005 C 355.9022 666.7336 354.1646 667.7563 352.0854 668.6093 L 349.8032 669.9274 C 347.328 671.2855 343.8672 672.5307 341.2851 673.5481 C 340.3641 673.9104 341.045 673.8795 340.0503 674.1448 C 339.4619 674.3027 338.9601 674.2253 338.4176 674.426 C 337.703 674.6922 338.4669 674.555 337.4552 674.9929 L 327.6471 677.7403 C 321.3643 679.0005 314.7871 679.6766 308.2102 679.5935 C 307.1032 679.5785 305.8824 679.6103 304.7893 679.5451 L 295.3128 678.3653 C 293.3175 677.886 291.2204 677.7785 289.2682 677.2527 C 285.0412 676.1132 281.2751 675.235 277.2051 673.5648 C 276.7306 673.3695 276.2447 673.3015 275.7702 673.1371 L 274.71 672.6353 C 274.6568 672.6093 274.5876 672.5747 274.5343 672.5494 C 274.0618 672.3244 273.7545 672.1889 273.3109 671.959 L 269.6817 670.3319 C 266.7467 669.0801 263.893 667.3017 261.201 665.6136 C 260.8665 665.4036 260.9637 665.422 260.5516 665.1831 C 258.8712 664.2068 256.9805 663.0897 255.5728 661.7333 L 251.3713 658.5593 C 249.9905 657.3645 248.7277 656.3276 247.5751 655.2386 C 245.1183 652.9161 241.0305 649.0154 238.9972 646.158 L 237.439 644.0338 C 235.1616 641.7357 233.6176 638.968 231.9698 636.3255 C 229.3095 632.0594 225.9354 626.1202 224.5847 621.288 L 221.0323 610.6411 C 220.7089 609.0401 221.0023 609.2671 220.4167 607.8229 L 219.2275 601.9716 C 218.9072 599.9221 218.9716 593.4665 218.1121 592.2317 Z " fill="#053751" fill-rule="evenodd"/>
<path transform="matrix(1,0,0,-1,0,792)" d="M 215.1473 590.6511 L 214.1084 590.9649 C 213.6155 590.0074 213.7864 590.4428 213.3099 589.8535 L 212.5916 588.9903 C 212.557 588.9481 212.4981 588.8968 212.4646 588.854 C 211.6508 587.8188 212.345 588.6354 211.8555 587.6172 C 211.8294 587.5628 211.794 587.4956 211.7659 587.4423 C 211.7387 587.3919 211.693 587.3304 211.665 587.2808 L 211.2783 586.6129 C 211.0876 586.0123 211.2877 586.9287 211.1896 586.1738 C 211.0204 584.8679 210.8971 581.252 211.5547 579.9368 L 213.1977 577.3623 C 213.2558 577.296 214.4449 576.0221 216.1684 575.0597 C 217.7938 574.1529 220.2092 574.2181 222.2334 574.6022 C 223.0228 574.7525 223.9588 575.3475 224.6267 575.9005 L 226.1157 577.311 C 226.491 577.7155 226.279 577.497 226.6033 577.878 C 227.2365 578.6226 227.5112 579.5362 227.8913 580.2806 C 228.6995 581.8657 228.8835 584.8577 227.9942 586.6223 C 226.8173 588.9586 226.7994 589.3957 225.5383 590.4933 L 222.749 592.1858 C 221.9139 592.5362 223.1096 592.2 222.0038 592.4951 C 222.0038 597.003 221.6619 595.2498 222.6387 598.7143 C 223.1067 600.3714 222.5577 601.9044 223.5311 604.9412 C 224.0493 606.5609 223.6357 607.5371 224.3568 609.1243 C 224.7256 609.9358 224.6173 610.8673 224.9816 611.9266 C 225.2477 612.7019 225.3283 612.3104 225.5737 613.1792 C 226.038 614.825 225.3413 613.8882 226.3119 615.8684 C 226.338 615.9234 226.3717 615.9898 226.3958 616.0487 C 226.4865 616.2729 226.6481 617.1772 226.69 617.3351 C 227.0001 618.4885 226.902 617.8085 227.2581 618.6129 L 229.415 624.1017 C 230.1435 626.1446 231.3252 627.982 232.2743 629.9408 C 232.3015 629.9949 232.3358 630.0632 232.363 630.1165 C 232.3911 630.1678 232.4313 630.2322 232.4591 630.2837 L 233.9201 632.7768 C 234.1154 633.1085 234.0238 632.9962 234.1882 633.3009 L 234.773 634.2965 C 234.8028 634.3469 234.8393 634.4152 234.8691 634.4649 L 235.6211 635.5576 C 235.8575 635.9153 235.7118 635.7053 235.9071 636.063 L 241.7743 644.1684 C 242.0283 644.4822 241.8301 644.2421 242.1422 644.5905 C 242.3852 644.8603 242.4336 644.9006 242.6465 645.1407 L 253.5245 655.8803 C 253.5644 655.9166 253.6226 655.9699 253.6625 656.0053 L 266.1386 664.6207 C 266.4264 664.77 266.3833 664.7057 266.6954 664.8542 C 267.592 665.2828 267.3502 665.3166 267.8182 665.5771 L 271.2827 667.3847 C 271.3371 667.4119 271.4051 667.4445 271.4621 667.4689 L 274.953 668.9877 C 275.7319 669.4977 276.4466 669.4285 277.4265 669.9413 L 281.2805 671.3595 C 282.0073 671.5032 282.0214 671.4808 282.6836 671.8011 C 284.0298 672.4505 284.2931 672.1112 285.3794 672.5327 C 286.1977 672.8494 285.431 672.8071 286.4126 673.0809 C 286.96 673.234 287.4951 673.1371 288.1089 673.2303 C 289.0936 673.3797 289.6279 673.901 290.6478 674.1187 C 292.2106 674.4521 292.4237 673.8769 293.8632 674.5941 C 295.1708 675.2463 295.0642 674.9949 296.8821 675.0023 C 297.9031 675.0062 298.9644 675.1565 299.9639 675.3481 C 300.3262 675.4173 300.7026 675.5695 301.2109 675.6823 C 304.4035 676.3924 313.2748 676.2634 316.4043 675.8226 C 318.6048 675.5125 320.2815 675.021 322.7236 675.0249 C 325.04 675.0275 323.9603 674.5961 325.408 674.2811 C 327.7312 673.7769 326.1909 674.5867 329.8235 673.4248 C 330.4307 673.2303 330.6373 673.2612 331.4191 673.1742 C 333.2024 672.978 332.2896 672.6745 334.0363 672.3655 C 335.632 672.0834 336.4138 671.6154 337.9578 671.2773 L 344.3006 668.6569 C 346.6199 667.6228 348.9644 666.7466 351.068 665.4073 L 351.5343 665.0821 C 351.9666 664.827 352.1704 664.7879 352.5712 664.5365 L 364.0924 656.8135 C 364.8949 656.1213 364.936 655.8625 365.8663 655.1609 C 366.2969 654.8369 366.4894 654.7022 366.8882 654.3371 C 366.9284 654.3006 366.9846 654.2464 367.0237 654.209 L 371.0375 650.5773 C 371.0778 650.5407 371.1376 650.4914 371.1776 650.454 L 384.0554 634.0686 L 387.4425 627.7017 C 387.5173 627.558 387.7376 627.2271 387.7452 627.2141 L 392.8714 614.1506 C 393.1061 612.8232 393.5049 612.6075 393.7 611.2877 C 393.7496 610.9523 393.9009 610.2618 394.0792 609.8219 C 394.7417 608.1928 394.539 609.1362 394.6921 607.0073 C 394.8154 605.2932 395.3713 605.7332 395.475 604.0996 C 395.5626 602.7171 395.6236 602.2071 395.7318 600.929 C 395.8673 599.3291 396.3407 599.3345 396.5006 598.0073 C 396.7257 596.1317 396.8807 579.579 396.2044 577.5259 C 395.6513 575.8444 395.9019 573.0327 395.2545 571.358 C 395.1581 571.1094 394.9172 570.833 394.78 570.2502 C 394.6147 569.5458 394.7145 569.2056 394.6836 568.5015 C 394.6156 566.9685 393.9066 566.5791 393.6356 564.5407 C 393.3711 562.5539 393.7048 564.3354 393.1396 563.1919 C 392.5913 562.0842 393.0154 561.5527 392.3464 560.2935 L 391.7392 558.5278 C 391.4385 557.3789 391.2769 557.8404 390.9183 556.4494 L 387.4462 548.5853 C 387.2707 548.2508 387.2948 548.2003 387.1267 547.85 C 386.9436 547.4682 387.0062 547.596 386.8464 547.34 L 385.6022 545.1571 C 385.4687 544.932 385.448 544.8796 385.31 544.6582 L 382.502 540.0839 C 382.4711 540.0371 382.4308 539.9708 382.3982 539.924 L 372.4106 527.7677 C 371.9959 527.3388 371.8709 527.2781 371.4551 526.8773 L 365.5729 521.424 C 363.9467 520.0566 363.0883 520.4086 363.3069 518.9448 C 365.1134 519.6379 371.3712 525.4566 373.0524 527.1304 C 375.3541 529.4237 377.5567 532.1597 379.6435 534.7837 L 384.0403 540.9142 L 393.2348 559.8394 C 393.4256 560.7706 393.2331 560.5203 393.6039 561.4013 L 394.4222 564.3156 C 395.1105 565.9438 394.9163 566.962 395.403 568.3156 C 396.0045 569.9906 396.8257 575.7931 396.9292 577.4624 C 397.0658 579.6445 397.1265 581.9357 397.5018 583.9152 C 398.3482 588.3766 397.2844 593.0107 397.0806 597.2423 C 396.9564 599.8408 396.6248 601.0673 396.2333 603.4941 C 396.0896 604.3844 396.0913 606.0163 395.8569 606.8775 L 394.1989 612.1562 C 393.5823 614.8811 392.8978 617.5536 391.7302 620.0898 L 389.6348 625.1292 C 388.3802 628.5294 386.3327 631.6549 384.4879 634.7384 L 383.3892 636.5693 C 382.4991 638.062 383.0474 637.7369 382.517 638.3001 L 382.1049 638.6749 C 380.8803 639.9386 380.1526 641.382 379.0253 642.7763 L 370.1914 652.6621 C 369.9334 652.9592 370.0315 652.8807 369.8382 653.0658 L 354.4067 664.5271 C 354.3619 664.56 354.3012 664.6093 354.2562 664.6422 C 354.2122 664.674 354.1544 664.7253 354.1105 664.757 C 353.6912 665.0634 354.0591 664.8401 353.6603 665.0793 L 347.8603 668.0188 C 345.9988 668.7794 344.7105 669.3772 342.9048 670.172 C 340.6209 671.1772 332.0841 674.242 329.3371 674.5717 C 328.1329 674.7157 327.5201 674.8211 326.4786 675.1463 C 325.1548 675.5601 321.9052 675.913 320.3107 676.1392 C 314.9059 676.9089 305.3497 676.8062 299.5004 676.3822 C 298.1001 676.2813 297.6508 675.9122 296.5467 675.7339 C 295.4594 675.5573 294.2572 675.6029 293.1701 675.5068 C 291.5025 675.3583 291.9611 674.9016 290.4908 674.6669 C 289.9108 674.5745 289.2495 674.6017 288.69 674.5147 C 287.3597 674.3092 288.0278 674.3336 287.5374 674.0889 C 286.3845 673.5124 285.7065 673.8729 284.5984 673.5266 L 278.0093 671.1772 C 277.4843 670.953 277.2527 670.9595 276.7893 670.7784 L 268.23 666.743 C 267.878 666.5244 267.7901 666.4056 267.3099 666.1301 L 265.3027 664.9177 C 264.1031 663.9985 259.5288 661.5848 256.4827 659.2589 L 254.4724 657.6111 C 250.1858 654.2464 247.4348 651.6692 243.6293 647.5833 L 238.0294 640.5066 C 237.8154 640.2197 237.8957 640.3748 237.6689 640.1123 L 231.9231 631.0664 C 231.4514 630.1857 231.0778 629.4019 230.6761 628.6348 L 227.3692 621.377 C 226.5463 619.6516 226.3249 618.0823 225.5598 616.3027 L 222.5203 605.1169 C 221.8141 600.5302 221.1089 596.3706 221.5993 591.8131 C 223.2703 591.0911 222.5052 591.7011 224.0972 590.6044 C 227.9971 587.9169 228.8611 581.7396 225.7169 577.9695 C 224.5958 576.6253 222.9024 575.6681 221.2339 575.1533 C 218.3261 574.2556 214.8418 576.2826 213.0922 578.5656 C 213.0605 578.6076 213.0083 578.6666 212.9763 578.7085 L 212.2852 580.3143 C 211.2279 583.2689 211.3016 584.4943 212.4244 587.1351 C 213.0857 588.6904 213.9534 589.5227 215.1473 590.6511 " fill="#053751" fill-rule="evenodd"/>
<path transform="matrix(1,0,0,-1,0,792)" d="M 215.1473 590.6511 L 218.1121 592.2317 C 218.9716 593.4665 218.9072 599.9221 219.2275 601.9716 L 220.4167 607.8229 C 221.0023 609.2671 220.7089 609.0401 221.0323 610.6411 L 224.5847 621.288 C 225.9354 626.1202 229.3095 632.0594 231.9698 636.3255 C 233.6176 638.968 235.1616 641.7357 237.439 644.0338 L 238.9972 646.158 C 241.0305 649.0154 245.1183 652.9161 247.5751 655.2386 C 248.7277 656.3276 249.9905 657.3645 251.3713 658.5593 L 255.5728 661.7333 C 256.9805 663.0897 258.8712 664.2068 260.5516 665.1831 C 260.9637 665.422 260.8665 665.4036 261.201 665.6136 C 263.893 667.3017 266.7467 669.0801 269.6817 670.3319 L 273.3109 671.959 C 273.7545 672.1889 274.0618 672.3244 274.5343 672.5494 C 274.5876 672.5747 274.6568 672.6093 274.71 672.6353 L 275.7702 673.1371 C 276.2447 673.3015 276.7306 673.3695 277.2051 673.5648 C 281.2751 675.235 285.0412 676.1132 289.2682 677.2527 C 291.2204 677.7785 293.3175 677.886 295.3128 678.3653 L 304.7893 679.5451 C 305.8824 679.6103 307.1032 679.5785 308.2102 679.5935 C 314.7871 679.6766 321.3643 679.0005 327.6471 677.7403 L 337.4552 674.9929 C 338.4669 674.555 337.703 674.6922 338.4176 674.426 C 338.9601 674.2253 339.4619 674.3027 340.0503 674.1448 C 341.045 673.8795 340.3641 673.9104 341.2851 673.5481 C 343.8672 672.5307 347.328 671.2855 349.8032 669.9274 L 352.0854 668.6093 C 354.1646 667.7563 355.9022 666.7336 357.7742 665.5005 C 363.5263 661.7117 368.6865 657.6222 373.5794 652.8574 C 374.2985 652.1567 374.7002 651.8543 375.4261 651.0274 L 380.3264 645.3853 C 380.9038 644.6035 381.3239 643.8937 381.8415 643.182 C 382.233 642.6439 382.9269 641.9319 383.3773 641.308 C 387.2716 635.9088 393.5628 625.0003 394.8191 618.6334 C 395.0274 617.576 394.9965 618.2683 395.3843 617.4181 C 395.4132 617.3535 395.447 617.2892 395.473 617.22 C 396.1111 615.5311 395.2003 618.4222 395.602 616.7699 L 396.2137 614.8502 C 396.9133 613.5565 396.3781 613.1614 396.8116 611.9376 C 397.2739 610.6317 396.9414 612.246 397.4253 610.8092 L 398.4182 606.7273 C 398.5753 605.3746 398.4659 604.7739 398.8638 603.5221 C 399.2057 602.4509 399.331 601.926 399.399 600.6611 C 399.5186 598.449 399.526 596.0186 400.0082 594.1185 C 400.9589 590.3691 400.1409 584.2993 399.6615 580.7254 C 399.3673 578.5262 399.583 576.1154 399.1955 574.0407 C 398.9684 572.8272 398.6144 572.476 398.4996 571.0963 C 398.336 569.1461 398.408 569.7167 397.8672 568.266 C 397.4851 567.2404 397.6673 566.1037 397.3467 565.0611 L 396.5902 562.3931 C 396.2727 560.5333 395.346 558.923 394.7669 557.1136 C 394.1904 555.3128 394.0841 556.628 393.7496 554.5363 C 393.5058 553.0147 392.8473 551.9648 392.1914 550.7226 L 382.9448 534.9107 C 382.7401 534.653 382.8504 534.7885 382.6001 534.4642 L 379.1353 530.0133 C 376.6833 527.1052 374.3762 525.2706 372.5359 522.6327 C 373.7548 522.4516 373.244 522.5207 374.0006 523.2773 L 376.5132 525.7743 C 376.5518 525.8126 376.6076 525.8667 376.645 525.9059 C 376.6992 525.96 376.8514 526.119 376.9038 526.1749 C 377.0374 526.3169 377.2709 526.5802 377.2794 526.5896 L 386.3982 538.2969 C 386.6859 538.6742 386.443 538.3128 386.7474 538.7389 L 393.2714 550.6693 C 393.2946 550.7328 393.3088 550.8074 393.33 550.8737 C 393.518 551.4474 393.3105 551.071 393.5786 551.6799 L 394.3689 553.5258 C 394.6949 554.4692 394.1447 553.0932 394.5138 553.9079 C 394.539 553.9637 394.5762 554.0284 394.6034 554.0817 L 396.5865 559.4808 C 397.0069 560.3635 396.991 561.4583 397.4196 562.3381 L 398.1166 565.0685 C 398.3474 566.7202 398.846 565.7777 398.9013 567.9746 C 398.9509 569.9296 399.003 569.3338 399.541 570.7619 C 399.9297 571.7951 399.9586 572.7424 399.9455 574.0481 C 399.9231 576.3694 400.1922 575.3857 400.6023 577.0823 C 401.2055 579.5745 400.5706 584.7352 400.8555 587.6405 C 401.0805 589.9292 400.8172 595.1826 400.7554 598.0436 C 400.7171 599.8232 400.2352 599.9046 400.0164 600.9965 C 399.8044 602.0623 400.0326 603.2889 399.8149 604.4854 C 399.5634 605.8658 399.115 606.3378 398.9582 607.3194 C 398.6929 608.9876 399.1842 608.745 398.4659 610.2544 C 398.2241 610.7635 398.4089 610.1572 398.2164 610.7953 C 397.9709 611.606 398.1008 612.4448 397.7813 613.2594 L 397.0114 615.9169 C 396.7781 617.0987 396.7965 616.3084 396.4201 617.1715 L 395.1264 621.15 C 394.7389 622.6603 393.9457 623.7252 393.4534 625.0133 L 389.6722 632.8318 C 389.6461 632.8888 389.6218 632.9616 389.5957 633.0186 L 381.5371 644.995 C 381.5025 645.0378 381.4537 645.0996 381.4203 645.1427 C 381.3866 645.1863 381.3398 645.2481 381.3063 645.2921 C 381.2726 645.336 381.227 645.3995 381.1941 645.4434 C 381.1606 645.4874 381.1158 645.5509 381.0821 645.5957 L 380.418 646.5129 C 379.1503 648.3297 377.5034 650.0083 375.9874 651.5731 C 375.95 651.6122 375.8958 651.6683 375.8576 651.7066 C 375.8193 651.7449 375.7623 651.799 375.7241 651.8364 C 375.6847 651.8738 375.6268 651.926 375.5877 651.9634 C 375.5475 652.0008 375.4885 652.0521 375.4485 652.0887 L 374.1418 653.4179 C 374.1043 653.457 374.0502 653.5131 374.0119 653.5514 L 370.7892 656.6556 C 370.747 656.691 370.6872 656.7415 370.6452 656.7761 L 359.6406 665.2791 C 359.4603 665.4008 359.4098 665.4285 359.1621 665.5921 C 359.1145 665.623 359.0501 665.6649 359.0025 665.6967 C 358.9557 665.7276 358.8914 665.7707 358.8437 665.8013 L 347.9632 671.7929 C 347.5539 671.989 347.2727 672.0432 346.8385 672.2487 C 346.2293 672.5373 346.1837 672.6008 345.583 672.8389 L 340.4126 674.7877 C 339.2189 675.1003 340.0174 675.0108 339.16 675.3787 C 338.7546 675.5536 337.9961 675.6545 337.6766 675.7413 C 336.1456 676.158 337.0275 676.4119 335.0911 676.5829 C 334.7773 676.6109 334.6931 676.5718 334.3615 676.6447 C 333.2631 676.8884 333.5984 677.2181 332.284 677.4676 L 329.3351 678.2091 C 328.515 678.511 327.3678 678.2587 324.8952 679.0414 C 324.2273 679.2537 324.0927 679.2041 323.3231 679.3143 C 321.158 679.6253 321.0888 679.3339 318.4106 679.9382 C 317.2272 680.2053 316.0996 680.269 314.9433 680.2829 L 314.8628 680.2829 L 313.4701 680.2829 L 313.2187 680.2829 L 313.0038 680.2829 L 303.73 680.2829 C 302.2608 680.1803 300.8064 679.9802 299.3856 679.6159 C 297.1698 679.049 295.4548 679.8206 293.097 678.7874 C 291.6791 678.1652 290.1603 678.5855 288.6602 677.9514 L 285.8156 677.3695 C 284.6489 677.0098 285.3794 677.0313 284.5967 676.7427 C 283.4393 676.3167 283.0723 676.7399 281.6637 675.985 C 281.1387 675.705 280.7864 675.6797 280.2251 675.5777 C 278.5473 675.2733 279.8467 675.591 278.8659 675.0921 L 270.0658 671.5023 C 270.0142 671.4743 269.9535 671.4283 269.9022 671.4014 L 251.2069 659.5157 C 250.4931 658.9049 249.8477 658.4491 249.1631 657.87 L 242.0685 650.9911 C 242.0169 650.935 241.8684 650.7726 241.818 650.7145 L 237.7165 645.8533 C 237.6819 645.8105 237.6315 645.7507 237.5977 645.7076 L 235.2878 642.7457 C 234.9989 642.344 234.8691 642.1581 234.6358 641.8162 L 230.4592 635.4473 C 230.4295 635.3997 230.3844 635.3362 230.3538 635.2886 L 228.0586 631.258 C 227.9353 631.0216 227.8746 630.786 227.7439 630.517 C 227.4673 629.9484 227.7774 630.5723 227.4599 630.0108 L 227.1711 629.5082 C 227.145 629.4523 227.118 629.3803 227.0928 629.3234 C 226.7705 628.5864 227.0358 628.9852 226.6024 628.2323 L 224.9218 624.3763 C 223.9971 622.5968 224.4838 623.2983 223.9512 621.9196 C 223.8401 621.6318 223.6963 621.4589 223.6703 621.4096 L 221.4683 615.1762 C 221.3685 614.6121 221.3629 614.2011 221.15 613.6489 C 220.5811 612.1797 220.5709 613.2557 220.4232 610.9483 C 220.3931 610.4869 219.759 608.8541 219.3936 606.4424 C 219.0969 604.4862 218.5483 603.9649 218.5801 601.7185 C 218.6232 598.733 217.7646 599.0927 217.7955 595.3861 C 217.8162 592.8406 217.4788 592.7958 215.7508 591.8944 C 214.4608 591.2229 215.0053 591.6104 215.1473 590.6511 " fill="#053751" fill-rule="evenodd"/>
<path transform="matrix(1,0,0,-1,0,792)" d="M 372.5359 522.6327 C 371.1206 522.1366 370.6257 521.0073 369.472 520.1957 L 359.8693 513.1468 C 358.6317 512.28 356.9681 511.2215 355.5845 510.3437 C 354.8971 509.9083 353.9509 509.3271 353.2045 509.0321 L 343.23 504.282 C 342.8067 504.1188 342.2483 503.9955 341.8308 503.8274 C 341.3058 503.6162 341.0824 503.4798 340.5331 503.2743 L 332.5334 500.5746 C 331.3817 500.2804 330.3935 500.4159 329.2549 500.0329 L 323.1981 498.7315 C 320.7206 498.3486 318.7281 498.6009 316.4068 498.0739 C 314.4192 497.6229 311.8017 497.706 309.5283 497.7031 C 307.262 497.6994 304.2298 497.3556 302.271 497.9489 C 299.7825 498.7026 298.499 498.4149 295.5387 498.5963 C 293.6511 498.712 294.1722 499.1698 292.659 499.3546 C 291.5065 499.4966 290.2958 499.4135 289.2169 499.6732 C 287.6567 500.0496 288.5117 500.2104 286.3219 500.4607 C 284.0803 500.7158 285.8791 501.0117 283.7038 501.2912 C 280.3008 501.7275 274.557 504.1933 271.5398 505.7337 C 270.9604 506.029 270.7784 505.9721 270.1675 506.2484 L 264.7619 509.2376 C 263.2439 510.2269 261.2979 511.0087 259.7856 512.1615 L 248.3158 521.028 C 246.4364 522.4431 244.4737 519.8902 240.2405 522.7254 C 236.7887 525.0382 236.2303 529.7207 237.5082 533.3564 C 238.0433 534.8789 239.3745 535.9944 240.9231 536.9443 C 244.328 539.032 248.722 538.2884 251.0668 534.835 C 252.4501 532.7997 252.9377 528.1767 251.6627 525.9461 C 249.6934 522.5 250.0055 523.6081 252.9442 520.3395 C 254.0866 519.0701 255.6972 518.3759 256.9779 517.269 C 260.888 513.8904 270.7858 508.7911 275.5553 506.8052 C 278.3064 505.6608 281.5336 504.3793 284.3875 503.7554 C 285.556 503.4994 285.2955 503.3846 286.0174 503.1006 C 286.791 502.797 287.2925 502.9061 288.1715 502.7848 C 289.7277 502.5691 289.5055 502.1495 292.1153 501.9225 C 293.7623 501.7796 294.7113 501.336 296.0572 501.1481 C 298.7138 500.7773 302.2336 500.5766 305.0461 500.5103 C 309.5215 500.4057 319.7463 500.5502 323.3903 501.603 C 324.0564 501.7955 324.5355 501.8712 325.2969 501.9795 L 327.0988 502.3494 C 329.3062 503.0836 333.4003 503.4163 335.1078 504.1811 L 345.5719 508.21 C 350.2284 510.4035 352.6038 511.484 357.0267 514.3995 C 357.0735 514.4304 357.1362 514.4751 357.1838 514.5052 L 359.2015 515.6875 C 360.3336 516.4087 361.1333 516.8225 362.0786 517.8155 L 363.151 518.832 C 363.1723 518.9131 363.2536 518.9085 363.3069 518.9448 L 362.2671 519.2589 C 361.6449 518.0584 360.8257 517.8875 359.6581 517.0569 C 359.6134 517.0243 359.5518 516.9776 359.5068 516.945 L 356.6103 515.0962 C 356.5457 515.0534 356.3674 514.9199 356.3019 514.8777 L 341.2675 507.2406 C 341.2057 507.2162 341.1366 507.1929 341.0714 507.1723 L 340.6368 507.0798 C 339.0358 506.7119 337.0918 505.5928 335.5824 505.2798 C 333.8768 504.9258 334.0644 504.7183 332.7968 504.3747 C 332.3336 504.2494 331.4163 504.2616 330.7436 504.0541 C 329.5162 503.6769 330.486 503.5601 329.0278 503.3985 C 325.3054 502.9838 325.2212 502.3225 322.9727 502.3355 C 320.4711 502.3494 320.6554 501.6946 319.017 501.546 C 317.5671 501.4134 315.769 501.6266 314.2726 501.5452 C 312.7938 501.4658 311.6682 501.2782 309.7916 501.2807 C 308.2745 501.2827 306.5335 501.1985 305.0453 501.279 L 298.4374 501.5256 C 297.0941 501.5631 297.3614 501.6852 296.5626 502.0243 C 295.2587 502.5773 293.6631 502.1833 292.3228 502.5297 C 290.7964 502.9231 290.1172 503.2621 288.4311 503.3826 C 286.6294 503.5124 287.8792 503.5592 286.6983 504.0224 C 286.1456 504.2401 285.1461 504.2503 284.6789 504.3756 C 283.515 504.6866 283.2265 505.0585 282.1241 505.2481 L 278.5986 506.4678 C 278.1122 506.6957 278.7687 506.5381 277.7134 506.9004 C 277.2227 507.0685 277.2612 506.9883 276.8661 507.1079 L 272.4437 509.0134 C 272.3822 509.0357 272.3094 509.0573 272.2496 509.0825 L 266.7356 512.0045 C 266.686 512.0334 266.6217 512.0745 266.5721 512.1045 C 266.5225 512.1334 266.4601 512.1774 266.4105 512.2063 C 264.005 513.6316 261.5204 514.959 259.2935 516.689 L 258.8638 517.0504 C 258.8207 517.0842 258.7592 517.1318 258.7144 517.1644 L 256.2715 518.9403 C 256.2287 518.9749 256.1678 519.0225 256.1241 519.0559 C 256.081 519.0897 256.0175 519.1356 255.9736 519.169 C 254.7947 520.0798 252.3382 522.5105 251.2667 522.898 C 251.572 524.2088 252.125 524.4168 252.5369 525.3182 C 253.4012 527.2053 254.0755 529.2819 253.5795 531.5386 C 253.2807 532.8995 251.9243 535.2976 250.9659 536.3053 C 250.935 536.3382 250.579 536.6809 250.5643 536.6948 C 250.524 536.7314 250.4633 536.7818 250.4231 536.8173 C 250.382 536.8538 250.3222 536.9043 250.2811 536.9397 L 248.3569 538.1782 C 247.0051 538.9696 243.5332 538.9985 242.0983 538.6575 L 241.3763 538.3239 C 241.3276 538.295 241.2689 538.2465 241.2201 538.2164 C 241.1717 538.1867 241.1101 538.141 241.0625 538.111 L 239.7322 537.332 C 238.6457 536.5837 238.0584 535.7449 237.3735 534.6819 C 236.234 532.9145 236.2397 532.0066 236.2397 529.7525 C 236.2397 527.108 236.3984 526.0235 237.8891 524.02 C 238.6831 522.9541 239.6313 521.9966 240.8411 521.4362 L 242.2375 520.7224 C 244.158 519.9032 246.9566 521.3344 248.6288 519.7334 C 248.9426 519.4324 249.2189 519.1869 249.603 518.8618 C 249.7825 518.7095 249.8542 518.6543 250.0299 518.4975 L 255.729 513.9156 C 256.1417 513.629 256.3985 513.43 256.82 513.161 L 263.2467 509.0423 C 263.2972 509.0134 263.3615 508.9734 263.4111 508.9433 L 266.1265 507.4404 C 266.4292 507.3029 266.3787 507.3545 266.6758 507.1995 L 279.1947 501.7918 C 280.5922 501.476 279.0734 501.6368 282.1754 500.8175 C 283.7951 500.3898 282.7397 500.1506 285.0094 499.9609 L 289.4888 498.9044 C 292.0071 498.4719 288.9768 498.3749 294.2478 498.1272 C 295.7658 498.0563 295.8154 497.5126 297.1681 497.3567 C 300.8137 496.9372 317.6317 496.6336 320.7076 497.4829 C 321.4933 497.6994 321.6305 497.9293 322.2471 498.0526 C 323.3914 498.2822 324.6542 497.9469 325.7734 498.217 C 326.4432 498.3786 326.715 498.6493 327.0728 498.7624 C 328.0992 499.0876 329.0771 498.884 330.2711 499.2557 C 332.187 499.8526 330.4466 499.6052 333.2228 499.9946 C 334.355 500.1534 335.0565 500.7662 336.198 500.9734 C 337.8963 501.2819 336.5643 500.9632 337.5505 501.4658 L 346.2293 504.6511 C 346.6721 504.7988 346.206 504.612 346.6256 504.7818 L 347.8343 505.419 C 349.0336 505.931 346.9439 505.0519 348.2229 505.5562 L 359.1249 511.5271 C 359.4742 511.757 359.2519 511.6224 359.5983 511.8437 L 360.7109 512.5779 C 360.7557 512.6108 360.8167 512.6584 360.8614 512.691 L 362.4372 513.7503 C 363.4095 514.3555 363.7851 514.7974 364.6967 515.4457 L 370.8788 520.3358 C 372.2958 521.6043 372.7525 521.1811 372.5359 522.6327 " fill="#053751" fill-rule="evenodd"/>
<path transform="matrix(1,0,0,-1,0,792)" d="M 281.0565 547.9427 C 281.7524 546.4928 280.7164 547.5382 282.5921 546.3153 C 282.6397 546.2844 282.7015 546.2379 282.748 546.207 C 282.7939 546.1753 282.8546 546.1277 282.9013 546.0968 C 282.947 546.065 283.0076 546.0174 283.0544 545.9865 L 291.1178 541.9222 C 291.6193 541.783 291.4121 541.9307 291.9651 541.7158 L 296.1862 540.1372 C 297.0102 539.9504 297.5389 540.1307 298.3374 539.9158 C 300.9988 539.1984 299.0305 539.1031 304.2643 538.988 C 305.9887 538.9498 306.4371 538.452 309.5283 538.452 C 311.2498 538.452 311.5908 538.9787 313.4718 538.99 C 315.0797 539.0002 316.3723 539.0107 317.698 539.246 C 319.0272 539.4824 318.1473 539.4047 319.2477 539.8047 C 320.8431 540.3838 320.178 539.4813 322.9364 540.5975 C 323.5997 540.8657 324.1658 540.8742 324.8206 541.0862 C 325.8332 541.4122 325.2745 541.442 326.2703 541.7456 C 326.7476 541.8913 326.7513 541.8147 327.1521 541.9176 C 328.1431 542.1736 327.2511 541.8522 328.0666 542.3221 L 334.9576 545.7118 C 335.8562 546.2677 336.0467 546.6169 337.2086 546.8879 L 337.2086 548.7338 C 336.524 548.9813 336.7874 549.0643 336.1691 549.8025 L 334.836 550.842 L 331.5668 548.8393 C 330.3607 548.2329 329.6619 547.5399 328.2693 547.128 L 325.2475 545.9323 C 324.2265 545.4961 325.2008 545.5746 323.7557 545.3138 C 321.285 544.8702 321.891 544.5227 320.5366 544.3155 C 319.7894 544.2004 319.3092 544.3396 318.6113 544.1315 C 317.5036 543.8007 318.3069 543.6981 317.145 543.4886 C 315.3991 543.1757 312.8862 543.3188 311.1256 543.1813 C 307.4936 542.8984 309.1397 543.0124 305.3106 543.1972 C 303.986 543.2618 303.0182 543.4055 301.337 543.4421 C 299.236 543.4886 300.3636 544.0847 297.9329 544.2557 L 293.8249 545.4204 C 293.7623 545.4411 293.6948 545.4709 293.6361 545.4952 L 290.7309 546.8085 C 289.6186 547.412 290.1192 546.8374 288.7319 547.7091 C 288.1894 548.0501 287.8866 548.1454 287.3597 548.4461 C 287.0544 548.6187 287.1085 548.6105 286.7097 548.8495 L 283.4291 550.842 C 283.172 550.5982 283.0703 550.5114 282.7508 550.2022 L 281.8009 549.0428 C 281.7692 548.998 281.7224 548.9357 281.6906 548.8897 Z " fill="#053751" fill-rule="evenodd"/>
<path transform="matrix(1,0,0,-1,0,792)" d="M 286.0651 632.5665 C 286.0858 631.654 286.8265 629.4027 287.911 629.4027 C 289.9267 629.4027 288.4946 629.286 291.5249 630.534 C 291.583 630.5581 291.6522 630.5882 291.708 630.6143 L 292.7477 631.156 C 293.6679 631.4457 293.2455 631.0395 294.3964 631.6174 C 296.9663 632.9075 294.8338 631.5344 298.1123 632.9103 C 299.1606 633.3503 300.1561 632.8142 302.5579 633.7369 C 304.5325 634.4955 311.7841 634.1479 314.2735 634.1479 C 315.8904 634.1479 316.2277 633.4044 318.293 633.1598 C 322.7672 632.6283 319.5437 632.8534 322.6394 632.2331 C 323.6258 632.035 323.6409 631.8351 324.3339 631.5551 L 325.8386 631.2141 C 328.1105 630.6469 328.3401 628.89 331.6731 629.6672 C 332.085 631.4355 331.9075 630.8152 332.7279 632.0398 C 331.7496 633.4997 331.4565 633.3746 330.3309 633.8614 L 327.223 635.2345 C 326.2431 635.6883 326.1078 635.4465 324.883 636.0582 C 323.4203 636.7878 324.0649 636.262 322.5169 636.5917 C 321.423 636.8253 321.8426 637.1464 320.2033 637.4418 C 319.269 637.6099 318.39 637.4792 317.5549 637.6929 C 316.5574 637.9489 316.4426 638.3665 315.0646 638.3665 L 303.4647 638.3665 C 302.1973 638.3665 302.1046 638.0498 301.1734 637.7576 C 299.1773 637.1297 300.456 638.202 296.4169 636.7141 C 295.2558 636.2861 295.2831 636.8224 294.0471 636.1843 C 291.9249 635.0868 293.1494 636.162 290.9945 635.0187 L 289.8306 634.6012 C 288.985 634.3404 288.7123 634.0445 287.8427 633.6893 C 285.8924 632.8936 287.6885 632.9999 286.0651 632.5665 " fill="#053751" fill-rule="evenodd"/>
<path transform="matrix(1,0,0,-1,0,792)" d="M 282.4081 547.4149 C 284.3595 545.9743 290.4273 542.8179 292.1743 542.4361 C 295.8622 541.6308 293.3167 541.77 295.5614 541.3776 C 296.699 541.1778 296.2797 541.3011 297.239 540.9207 C 298.9148 540.2557 299.6124 540.6928 301.2557 540.3679 C 302.3739 540.1466 302.8371 539.6737 304.528 539.5859 C 307.8179 539.4132 314.3557 539.3486 317.018 540.2007 C 318.3143 540.6163 319.4504 540.3679 320.7523 540.7498 C 321.4165 540.9451 321.5052 541.1534 322.2349 541.3235 C 324.174 541.7765 322.943 541.2104 324.9306 542.0597 C 325.3258 542.2286 325.294 542.2099 325.7257 542.3369 C 328.2208 543.073 328.2075 543.5484 330.2711 544.3024 C 330.9568 544.5527 331.181 544.72 331.7284 545.0066 L 335.7768 547.3037 C 335.8205 547.3278 335.9055 547.3718 335.9645 547.4149 C 336.1411 551.5191 331.9217 547.7474 329.01 546.588 L 323.1831 544.2817 C 321.9545 543.7335 321.1036 544.0745 320.0519 543.4654 C 318.6003 542.6246 318.3313 543.1252 316.5423 542.7556 C 309.7823 541.3581 300.8494 542.0727 294.7317 544.4124 C 293.3736 544.932 293.0355 544.6329 291.7137 545.4037 C 290.8329 545.9185 289.7073 546.3414 288.8572 546.73 C 288.1015 547.0756 288.1641 547.0897 287.4671 547.4755 C 286.2995 548.1201 284.5434 549.4008 283.4291 549.6483 C 282.6743 549.0522 282.3576 548.6834 282.4081 547.4149 " fill="#053751" fill-rule="evenodd"/>
<path transform="matrix(1,0,0,-1,0,792)" d="M 295.791 635.9564 C 294.8664 634.8243 294.5384 635.1355 293.4811 634.8178 L 287.64 631.8306 C 287.5997 631.8884 287.511 631.6894 287.456 631.6109 L 288.6058 630.5349 C 289.243 631.2356 288.8739 630.4666 290.2762 631.302 C 291.2485 631.8811 293.6015 632.8103 295.1838 632.8647 C 296.0478 633.028 295.9994 633.2933 296.7066 633.4849 C 297.534 633.71 298.1611 633.5867 298.9905 633.8687 C 299.973 634.2041 299.4687 634.2846 300.9745 634.4816 C 303.8012 634.8523 316.66 635.0457 318.8339 634.2069 C 321.3026 633.255 320.2705 634.0005 322.8701 632.9991 L 326.8596 631.696 C 327.9396 631.3037 329.2883 630.2163 330.611 630.2069 C 330.9528 630.7237 331.5331 631.2438 331.1005 632.1733 C 330.5194 633.4203 324.756 635.2084 323.2905 635.724 C 322.3525 636.0545 321.6651 635.9706 320.7926 636.2039 C 320.0715 636.3975 319.4952 636.7626 318.7001 636.8944 L 311.118 637.7556 C 304.8894 637.8956 303.874 637.5827 298.1066 636.2994 C 297.3883 636.1396 296.3852 636.1517 295.791 635.9564 " fill="#053751" fill-rule="evenodd"/>
<path transform="matrix(1,0,0,-1,0,792)" d="M 243.2259 535.4246 C 242.6607 534.99 242.2993 534.9359 241.6144 534.3934 C 237.2287 530.9203 239.4865 523.0148 246.2627 524.1852 C 247.6973 524.4327 248.5877 525.4838 249.2563 526.487 C 250.0262 527.6424 250.5203 531.4031 248.9014 533.4574 C 248.2886 534.2343 246.6298 535.5683 245.7113 535.7188 C 244.8567 535.858 243.7387 535.8197 243.2259 535.4246 " fill="#053751" fill-rule="evenodd"/>
<path transform="matrix(1,0,0,-1,0,792)" d="M 218.2008 588.9762 C 216.8297 588.6167 217.4219 588.6978 216.5176 588.0206 C 215.8237 587.5004 215.6105 587.5135 215.0895 586.4485 C 213.9134 584.0507 213.8077 582.7793 215.1734 580.373 C 217.9395 575.4951 226.0363 577.6977 224.8237 584.7287 C 224.2774 587.8956 221.813 589.9207 218.2008 588.9762 " fill="#053751" fill-rule="evenodd"/>
<path transform="matrix(1,0,0,-1,0,792)" d="M 302.4009 607.9388 C 304.81 607.5136 304.13 610.5804 304.143 612.5309 C 304.1606 615.0501 304.0824 616.1562 303.7507 618.6166 L 287.9631 618.6847 L 287.9773 625.585 L 331.9364 625.5842 L 335.0928 621.2602 C 335.9075 620.1159 335.6283 620.3438 335.6283 618.8567 C 334.0457 617.7543 321.1447 618.3298 317.173 618.3298 C 315.1721 618.3298 311.741 618.7136 310.9983 617.6208 C 310.678 616.8671 310.6276 609.5126 310.8526 608.3133 C 312.0018 607.0867 313.0571 606.674 315.4272 606.9243 L 314.5229 607.3064 C 314.2015 607.396 312.0531 607.7557 311.6971 608.36 C 311.502 609.692 311.4439 616.7426 311.9009 617.5451 C 312.5098 618.1243 329.6191 617.8496 332.9921 617.8272 L 335.2975 617.9102 C 337.7945 618.5605 334.9324 622.722 334.5137 623.287 C 333.0258 625.2936 333.4348 625.9521 330.0945 625.9306 C 324.1497 625.8923 288.0371 626.2353 287.4036 625.7588 C 286.8143 625.316 287.0067 620.8838 287.0218 619.9002 C 287.0487 618.1047 287.2074 618.4242 287.2786 618.215 C 287.7596 616.8073 302.114 618.781 303.3918 617.5395 C 303.7235 617.2172 304.0254 609.4959 303.3666 608.6523 L 302.5803 608.0621 C 302.5392 608.034 302.4541 607.9881 302.4009 607.9388 " fill="#053751" fill-rule="evenodd"/>
<path transform="matrix(1,0,0,-1,0,792)" d="M 261.5933 581.6333 L 261.5831 594.0281 C 260.2602 593.9512 258.7808 593.0042 258.0015 592.0727 C 256.8637 590.7118 256.2752 590.5205 256.2511 588.0206 C 256.2259 585.4884 257.076 583.1484 259.3945 582.3935 C 260.8897 581.9068 260.0603 581.6574 261.5933 581.6333 " fill="#053751" fill-rule="evenodd"/>
<path transform="matrix(1,0,0,-1,0,792)" d="M 375.4689 591.7028 C 374.4629 591.0004 374.4947 590.921 373.9428 590.0085 C 373.9127 589.9598 373.8716 589.8954 373.8436 589.847 C 373.5363 589.3228 373.2721 588.992 373.4459 588.1065 C 374.1378 584.587 378.5516 583.7357 380.0313 587.12 C 380.3151 587.7703 380.3647 588.9716 380.1087 589.7684 C 380.0554 589.9317 379.057 591.6067 378.9468 591.7581 C 377.3803 591.9758 376.7675 592.2652 375.4689 591.7028 " fill="#053751" fill-rule="evenodd"/>
<path transform="matrix(1,0,0,-1,0,792)" d="M 357.6209 543.9036 C 356.0797 543.1842 355.2463 542.1436 355.5816 539.7625 C 356.118 535.9561 362.554 536.2773 361.5676 541.6345 C 361.3601 542.7592 359.5649 544.8095 357.6209 543.9036 " fill="#053751" fill-rule="evenodd"/>
<path transform="matrix(1,0,0,-1,0,792)" d="M 295.1838 632.8647 C 293.6015 632.8103 291.2485 631.8811 290.2762 631.302 C 288.8739 630.4666 289.243 631.2356 288.6058 630.5349 L 287.456 631.6109 C 287.511 631.6894 287.5997 631.8884 287.64 631.8306 L 293.4811 634.8178 C 294.5384 635.1355 294.8664 634.8243 295.791 635.9564 C 293.4632 635.4615 288.0221 633.3486 286.8497 632.0398 C 287.1394 630.9972 287.4382 630.5499 288.1743 629.8296 C 288.8609 629.9745 290.8468 630.974 291.5325 631.3102 L 294.135 632.3003 C 294.2116 632.3369 294.448 632.446 294.5273 632.4871 Z " fill="#053751" fill-rule="evenodd"/>
</g>
</g>
</svg>
