<?xml version="1.0" encoding="UTF-8" standalone="no"?>
<!DOCTYPE svg PUBLIC "-//W3C//DTD SVG 1.1//EN" "http://www.w3.org/Graphics/SVG/1.1/DTD/svg11.dtd">
<svg xmlns="http://www.w3.org/2000/svg" xmlns:xlink="http://www.w3.org/1999/xlink" version="1.1" width="612pt" height="792pt" viewBox="0 0 612 792">
<g enable-background="new">
<g id="Layer-1" data-name="Layer 1">
<g id="Layer-2" data-name="Corel_OTF">
</g>
<symbol id="font_0_35">
<path d="M .23 0 L .34300003 0 L .34300003 .59900006 L .572 .59900006 L .572 .70000007 L 0 .70000007 L 0 .59900006 L .23 .59900006 L .23 0 Z "/>
</symbol>
<symbol id="font_0_26">
<path d="M .517 .11000001 L .111999999 .11000001 L .111999999 .298 L .49800004 .298 L .49800004 .402 L .111999999 .402 L .111999999 .591 L .51400008 .591 L .51400008 .70000007 L 0 .70000007 L 0 0 L .517 0 L .517 .11000001 Z "/>
</symbol>
<symbol id="font_0_24">
<path d="M .555 .18100001 C .531 .157 .50200006 .13800001 .46899999 .12500002 C .43600006 .112 .402 .105000007 .36900003 .105000007 C .28400005 .105000007 .22000002 .13000001 .17700002 .18 C .134 .229 .112 .289 .111 .36 C .11 .43100003 .132 .492 .17700002 .54300007 C .22200002 .59400007 .286 .62 .36900003 .62 C .44100005 .62 .501 .596 .55 .54800006 L .625 .62 C .554 .69100007 .46899999 .726 .36900003 .726 C .30900003 .726 .255 .716 .207 .69500008 C .158 .674 .119 .647 .09 .61200007 C .061000006 .577 .038000004 .53800007 .023000002 .49500004 C .008000001 .45200003 0 .40600003 0 .35900004 C 0 .312 .008000001 .26700003 .023000002 .22500001 C .038000004 .18300002 .060000004 .14500001 .089 .111 C .118 .077 .157 .050000006 .205 .030000002 C .25300003 .01 .30800004 0 .36900003 0 C .47400005 0 .56200006 .035000005 .632 .104 L .555 .18100001 Z "/>
</symbol>
<symbol id="font_0_29">
<path d="M .59300008 0 L .59300008 .70000007 L .48200006 .70000007 L .48200006 .395 L .111999999 .395 L .111999999 .70000007 L 0 .70000007 L 0 0 L .111999999 0 L .111999999 .291 L .48200006 .291 L .48200006 0 L .59300008 0 Z "/>
</symbol>
<symbol id="font_0_1">
<path d="M 0 0 Z "/>
</symbol>
<use xlink:href="#font_0_35" transform="matrix(35.985,0,0,-35.985,304.65306,398.2646)" fill="#053751"/>
<use xlink:href="#font_0_26" transform="matrix(35.985,0,0,-35.985,329.0149,398.2646)" fill="#053751"/>
<use xlink:href="#font_0_24" transform="matrix(35.985,0,0,-35.985,351.0013,398.76838)" fill="#053751"/>
<use xlink:href="#font_0_29" transform="matrix(35.985,0,0,-35.985,377.84614,398.2646)" fill="#053751"/>
<use xlink:href="#font_0_1" transform="matrix(35.985,0,0,-35.985,402.3519,398.2646)" fill="#053751"/>
<g id="Layer-2" data-name="Corel_OTF">
</g>
<symbol id="font_0_34">
<path d="M .56 .61800006 C .51100006 .697 .42400003 .736 .29900003 .736 C .26600004 .736 .23400001 .732 .20300001 .725 C .172 .717 .14400001 .705 .117 .69 C .09 .675 .069 .654 .053000004 .627 C .037 .6 .029000001 .57 .029000001 .535 C .029000001 .506 .034 .48100005 .045 .45900003 C .055 .43600003 .068 .418 .084 .404 C .09900001 .39000003 .120000008 .37800003 .14500001 .36800004 C .17 .358 .19500001 .35000003 .21800001 .34500004 C .24100001 .34 .26800005 .335 .30000005 .33100004 C .35600005 .32400004 .40000005 .312 .43200005 .29500003 C .46300004 .27800004 .47900007 .25100003 .47900007 .216 C .47900007 .18900001 .47000007 .16600001 .45200003 .148 C .43300004 .12900001 .41100005 .117000009 .38600005 .11000001 C .36100004 .10300001 .33300004 .10000001 .30200003 .10000001 C .202 .10000001 .12900001 .13800001 .084 .21500002 L 0 .15900001 C .057000005 .053000004 .158 0 .30100004 0 C .35300002 0 .40000005 .007 .44200004 .021000002 C .483 .034 .519 .058000007 .54800006 .091000009 C .577 .124000009 .591 .16600001 .591 .216 C .591 .25300003 .584 .286 .569 .31300003 C .554 .34 .532 .36100004 .503 .37700004 C .474 .39200003 .44500003 .404 .41600005 .41200004 C .38700003 .42000003 .35100005 .42700003 .31000004 .43300004 C .25500003 .441 .21300002 .45200003 .184 .46600003 C .155 .48000003 .14 .50200006 .14 .533 C .14 .566 .155 .592 .185 .611 C .215 .63 .25400005 .639 .30200003 .639 C .33900003 .638 .37300004 .631 .40400005 .61800006 C .43500004 .604 .45800004 .585 .47500006 .561 L .56 .61800006 Z "/>
</symbol>
<symbol id="font_0_30">
<path d="M .36 .72800007 C .255 .72800007 .16800002 .694 .10100001 .625 C .034 .556 0 .468 0 .361 C 0 .314 .008000001 .269 .023000002 .22700002 C .038000004 .18400002 .059 .14600002 .088 .112 C .11600001 .078 .15300001 .051000004 .2 .031000002 C .24700003 .01 .29900003 0 .35800005 0 C .417 0 .46899999 .01 .51600006 .030000002 C .563 .049000004 .6 .076000008 .629 .11000001 C .657 .14400001 .679 .18300002 .694 .22600001 C .709 .269 .716 .314 .716 .362 C .716 .463 .685 .55 .623 .621 C .561 .69200006 .473 .727 .36 .72800007 M .111 .36 C .111 .439 .133 .503 .17700002 .552 C .22000002 .601 .28100003 .626 .36 .626 C .41400004 .625 .45999999 .612 .499 .58500006 C .537 .558 .564 .52500006 .58100005 .486 C .597 .44700004 .605 .40500004 .605 .36 C .605 .287 .584 .22600001 .543 .177 C .50200006 .128 .44 .10300001 .35800005 .10300001 C .31700004 .10300001 .28000004 .111 .24800001 .12600002 C .21500002 .141 .18900001 .16100002 .17 .186 C .15100001 .21100001 .136 .238 .127 .268 C .117 .297 .112 .328 .111 .36 Z "/>
</symbol>
<symbol id="font_0_2d">
<path d="M 0 .70000007 L 0 0 L .481 0 L .481 .104 L .111999999 .104 L .111999999 .70000007 L 0 .70000007 Z "/>
</symbol>
<symbol id="font_0_36">
<path d="M .48300005 .71500006 L .48300005 .30600003 C .48300005 .24100001 .46500004 .19000001 .42900003 .15500002 C .39300005 .11900001 .34600003 .10300001 .28900004 .106000009 C .23600003 .10800001 .19300002 .126 .16 .16100002 C .127 .19600001 .11100001 .24400002 .11100001 .30600003 L .11100001 .71500006 L 0 .71500006 L 0 .30600003 C 0 .21100001 .028000005 .13800001 .083 .08500001 C .13800001 .032 .20600003 .005 .28900004 .0030000006 C .37800003 0 .45100004 .025000003 .508 .078 C .56500008 .131 .59400007 .20700002 .59400007 .30600003 L .59400007 .71500006 L .48300005 .71500006 Z "/>
</symbol>
<symbol id="font_0_2a">
<path d="M .11100001 0 L .11100001 .70000007 L 0 .70000007 L 0 0 L .11100001 0 Z "/>
</symbol>
<symbol id="font_0_2f">
<path d="M .086 .70000007 L 0 .70000007 L 0 0 L .113 0 L .113 .49400003 L .51000007 0 L .595 0 L .595 .70000007 L .48300005 .70000007 L .48300005 .202 L .086 .70000007 Z "/>
</symbol>
<use xlink:href="#font_0_34" transform="matrix(35.985,0,0,-35.985,305.15653,435.16297)" fill="#053751"/>
<use xlink:href="#font_0_30" transform="matrix(35.985,0,0,-35.985,329.4104,435.12696)" fill="#053751"/>
<use xlink:href="#font_0_2d" transform="matrix(35.985,0,0,-35.985,359.96168,434.5872)" fill="#053751"/>
<use xlink:href="#font_0_36" transform="matrix(35.985,0,0,-35.985,380.1489,435.16297)" fill="#053751"/>
<use xlink:href="#font_0_35" transform="matrix(35.985,0,0,-35.985,404.97859,434.5872)" fill="#053751"/>
<use xlink:href="#font_0_2a" transform="matrix(35.985,0,0,-35.985,429.34043,434.5872)" fill="#053751"/>
<use xlink:href="#font_0_30" transform="matrix(35.985,0,0,-35.985,438.12077,435.12696)" fill="#053751"/>
<use xlink:href="#font_0_2f" transform="matrix(35.985,0,0,-35.985,468.67204,434.5872)" fill="#053751"/>
<use xlink:href="#font_0_34" transform="matrix(35.985,0,0,-35.985,494.36534,435.16297)" fill="#053751"/>
<g id="Layer-2" data-name="Corel_OTF">
</g>
<symbol id="font_0_55">
<path d="M .095 .63100007 L .095 .499 L 0 .499 L 0 .41000004 L .095 .41000004 L .095 .17500001 C .095 .117000009 .11 .073 .13900002 .044 C .16800002 .014 .209 0 .263 .0010000002 C .296 .0010000002 .32900004 .008 .36200003 .023000002 L .33200003 .111 C .30900003 .1 .28800003 .094000007 .26900003 .094000007 C .222 .094000007 .19800002 .12100001 .19800002 .17500001 L .19800002 .41000004 L .34300003 .41000004 L .34300003 .499 L .19900002 .499 L .19900002 .6420001 L .095 .63100007 Z "/>
</symbol>
<use xlink:href="#font_0_55" transform="matrix(111.122,0,0,-111.122,96.367069,436.54597)" fill="#053751"/>
<g id="Layer-2" data-name="Corel_OTF">
</g>
<g id="Layer-2" data-name="Corel_OTF">
</g>
<symbol id="font_1_24">
<path d="M .28000004 0 L 0 0 L 0 .05 C .026 .05 .048 .054 .066 .063 C .083000008 .072000008 .096 .086 .105000007 .10700001 L .34200005 .656 L .31400005 .721 L .565 .721 L .82100006 .108 C .82600006 .096 .832 .086 .838 .079 C .845 .071 .85400006 .064 .86700007 .058000003 C .88 .053000004 .898 .05 .92 .05 L .92 0 C .837 .008 .76100006 .011000001 .69200006 .011000001 C .611 .011000001 .531 .008 .45200003 0 L .45200003 .05 C .52400007 .05 .559 .067 .559 .1 C .559 .109000008 .557 .11800001 .55300006 .127 L .49500004 .268 L .237 .268 C .22700002 .24400002 .216 .21800001 .20400001 .19100002 C .192 .164 .185 .14600002 .18200001 .13800001 C .179 .13000001 .177 .124000009 .176 .120000008 C .175 .115 .175 .109000008 .175 .102000009 C .175 .082 .183 .068 .2 .060000004 C .216 .052 .235 .048 .256 .048 C .26500003 .048 .273 .049000004 .28000004 .05 L .28000004 0 M .25800003 .31800003 L .47400005 .31800003 L .367 .587 L .25800003 .31800003 Z "/>
</symbol>
<use xlink:href="#font_1_24" transform="matrix(111.118808,0,0,-110.511,121.93649,437.4737)" fill="#053751"/>
<symbol id="font_2_1">
<path d="M 0 0 Z "/>
</symbol>
<use xlink:href="#font_2_1" transform="matrix(111.118808,0,0,-110.511,219.38751,437.4737)" fill="#053751"/>
<g id="Layer-2" data-name="Corel_OTF">
</g>
<symbol id="font_0_54">
<path d="M .41200004 .45500005 C .36300005 .499 .29900003 .521 .22200002 .521 C .169 .521 .12100001 .509 .080000009 .48400004 C .038000004 .45900006 .016999999 .421 .016999999 .371 C .018000002 .28500004 .085 .23600002 .21800001 .223 C .25700004 .21900001 .286 .21200001 .30500005 .202 C .32400004 .192 .33300004 .17600002 .33200003 .155 C .33100004 .134 .32100005 .11800001 .30000005 .10700001 C .279 .096 .25500003 .091000009 .22700002 .091000009 C .154 .09200001 .097 .117000009 .053999999 .164 L 0 .091000009 C .053999999 .030000002 .12900001 0 .22500001 0 C .28800003 0 .33900003 .014 .37700004 .043 C .41500003 .072000008 .43400005 .109000008 .43500004 .156 C .43500004 .186 .42900003 .21100001 .41700004 .23200001 C .40400005 .25300003 .38700003 .268 .36400003 .27899999 C .34100003 .28900004 .31900005 .296 .29900003 .301 C .27800004 .305 .25400005 .30800004 .226 .311 C .155 .31800003 .120000008 .339 .119 .374 C .119 .393 .12900001 .408 .148 .41900004 C .16700001 .42900003 .192 .43400003 .22400002 .43300004 C .27700005 .43300004 .32100005 .41800005 .35400004 .38700003 L .41200004 .45500005 Z "/>
</symbol>
<symbol id="font_0_49">
<path d="M 0 .70000007 L 0 0 L .10300001 0 L .10300001 .257 C .10300001 .298 .116000007 .333 .14200002 .36200003 C .16700003 .39000003 .20000002 .404 .23900002 .404 C .27800004 .404 .30800004 .39200003 .33 .36900003 C .35200004 .34500004 .36300005 .31 .36300005 .26500003 L .36300005 0 L .46600003 0 L .46600003 .266 C .46600003 .33900003 .44900007 .39600004 .41500003 .43800003 C .38100005 .47900004 .33 .5 .263 .5 C .194 .5 .141 .47300003 .10300001 .42000003 L .10300001 .70000007 L 0 .70000007 Z "/>
</symbol>
<use xlink:href="#font_0_54" transform="matrix(111.122,0,0,-111.122,199.71198,433.97895)" fill="#053751"/>
<use xlink:href="#font_0_49" transform="matrix(111.122,0,0,-111.122,252.09784,432.3121)" fill="#053751"/>
<path transform="matrix(1,0,0,-1,0,792)" d="M 156.3077 435.6417 L 184.8064 436.5439 L 227.5353 355.3019 L 171.7758 355.765 L 171.8512 361.1976 C 178.8639 361.2892 184.1638 362.9701 183.9759 368.0022 Z " fill="#053751" fill-rule="evenodd"/>
<path transform="matrix(1,0,0,-1,0,792)" stroke-width="1.9998" stroke-linecap="butt" stroke-miterlimit="2.6131259" stroke-linejoin="miter" fill="none" stroke="#ffffff" d="M 156.3077 435.6417 L 184.8064 436.5439 L 227.5353 355.3019 L 171.7758 355.765 L 171.8512 361.1976 C 178.8639 361.2892 184.1638 362.9701 183.9759 368.0022 Z "/>
</g>
</g>
</svg>
